<svg xmlns="http://www.w3.org/2000/svg" viewBox="0 0 599.99 147.52" focusable="true" aria-hidden="false" tabindex="0" role="img"><path fill="#ffffff" d="m69.08,85.64c-.07-.99-.59-1.25-1.32-1.19-.33,0-.73,0-.99.2-1.45.66-2.18,2.71-2.11,4.16,0,.53.13,1.06.33,1.65.53-.92,1.19-1.78,1.91-2.51.66-.79,1.39-1.52,2.18-2.31m53.44-.46h-33.25c-.99-7.26-6.8-13.06-14.12-13.99h-.2V24.28c0-.86-.73-1.58-1.58-1.58-.92,0-1.58.73-1.58,1.58v46.84c-7.72.59-13.92,6.47-14.91,14.05H24.54c-.86,0-1.58.73-1.58,1.58,0,.92.73,1.58,1.58,1.58h32.2v.53c.73,8.31,7.72,14.85,16.23,14.85s15.5-6.53,16.23-14.85v-.53h33.19c.86,0,1.58-.73,1.58-1.58.13-.92-.59-1.58-1.45-1.58h0Zm-40.91,2.71c-1.12.07-1.65-.46-2.38-.99,0,5.61-2.64,10.29-8.58,10.82-1.19.07-2.18,0-3.1-.26-3.17-.86-4.68-3.43-4.88-6.07-.2-2.57,1.39-6,3.76-7.72.79-.46,1.65-.86,2.44-.92.92-.07,1.72.07,2.18.79,1.12-1.32,2.64-2.71,2.57-4.22,0-.33-.26-.66-.33-1.19-.07-.59.53-1.25,1.19-1.32.86-.07,1.39.26,1.52,1.19.13,1.19-1.52,3.3-4.16,6.14-1.65,1.72-3.56,3.69-4.82,5.41-.73.99-1.12,1.91-1.06,2.57.07.92.66,1.52,1.45,1.98,1.06.53,2.44.73,3.43.59,4.75-.4,8.05-3.69,7.65-8.64-.46-.33-1.39-1.25-2.51-1.19-.92.07-1.65.92-1.58,1.72.13,1.19,1.85.26,1.91,1.72.07.79-.73,1.25-1.39,1.32-.99.07-1.85-.66-1.91-1.65-.2-2.31,2.38-4.88,4.49-5.08,2.51-.2,4.22,3.04,5.54,2.9.4,0,.86-.4.86-.86-.07-.59-.99-.79-1.06-1.52-.07-.59.2-1.12.79-1.19.92-.07,1.39.66,1.45,1.58,0,1.85-2.11,3.96-3.5,4.09h.03Zm60.11-42.83c-3.69-8.78-9.04-16.69-15.83-23.42-6.8-6.8-14.65-12.07-23.42-15.83-9.11-3.83-18.74-5.81-28.71-5.81s-19.6,1.98-28.7,5.81c-8.78,3.69-16.69,9.04-23.42,15.83-6.8,6.8-12.07,14.65-15.83,23.42C1.98,54.17,0,63.8,0,73.76s1.98,19.6,5.81,28.7c3.69,8.78,9.04,16.69,15.83,23.42,6.8,6.8,14.65,12.07,23.42,15.83,9.11,3.83,18.74,5.81,28.7,5.81s19.6-1.98,28.7-5.81c8.78-3.69,16.69-9.04,23.42-15.83,6.8-6.8,12.07-14.65,15.83-23.42,3.83-9.11,5.81-18.74,5.81-28.7-.07-9.9-1.98-19.6-5.81-28.7h.01Zm-8.12,54.04c-3.3,7.72-7.98,14.71-13.92,20.65-5.94,5.94-12.93,10.69-20.65,13.92-7.98,3.36-16.49,5.08-25.27,5.08s-17.29-1.72-25.27-5.08c-7.72-3.3-14.71-7.98-20.65-13.92-5.94-5.94-10.69-12.93-13.92-20.65-3.36-7.98-5.08-16.49-5.08-25.27s1.72-17.29,5.08-25.27c3.3-7.72,7.98-14.71,13.92-20.65s12.93-10.69,20.65-13.92c7.98-3.36,16.49-5.08,25.27-5.08s17.29,1.72,25.27,5.08c7.72,3.3,14.71,7.98,20.65,13.92s10.69,12.93,13.92,20.65c3.36,7.98,5.08,16.49,5.08,25.27s-1.72,17.29-5.08,25.27h0ZM59.78,63.6c-.66,1.39-1.39,2.71-3.17,4.49-4.68,4.88-9.83,5.08-12.47,5.08-4.42,0-8.64-.99-12.54-4.68-2.44-2.44-4.95-6.33-4.95-12.8,0-12.01,8.38-18.67,17.55-18.67,5.34,0,8.64,1.98,11.22,3.5.66-1.06.73-1.39,1.19-2.64h1.39l.53,12.47h-1.65c-1.19-4.35-3.63-11.55-12.4-11.55-3.1,0-5.81.92-8.05,3.63-1.45,1.72-3.83,5.41-3.83,12.47,0,2.9.33,8.31,4.16,12.27,2.38,2.51,5.08,3.5,8.31,3.5,8.38,0,11.74-6.14,12.93-8.38l1.78,1.32h0Zm57.55-6.56c-2.9-2.51-7.06-2.97-9.24-3.24,1.91-.26,4.95-.66,7.26-2.64,1.19-.93,2.51-2.64,2.51-5.35,0-5.09-4.16-7.07-6.93-7.6-1.22-.26-2.69-.26-4.64-.26h-16.42v1.52c2.77.07,3.69.2,4.49.92.73.73.79,1.78.79,2.64v23.55c0,1.78-.07,2.9-1.45,3.63-.79.46-1.72.53-4.22.66v1.65h16.76c4.82,0,7.7-.28,10.58-2.51,1.98-1.65,3.17-3.7,3.17-6.81,0-1.72-.26-4.1-2.64-6.15h-.02Zm-16.45-17.32c1.39-.07,2.64-.07,3.89-.07.46,0,.99,0,1.52.07,1.25.07,2.46.33,3.59,1.26,1.72,1.52,1.72,3.97,1.72,5.09,0,1.39,0,4.96-3.63,6.41-.53.26-1.53.46-2.25.59-1.33.17-2.88.17-4.83.11v-13.46h0Zm8.67,30.41c-.99.33-2.18.46-3.43.46h-.42c-1.39,0-2.71,0-3.76-.99-.99-.79-1.06-1.65-1.06-2.64v-12.21c1.32,0,2.32,0,3.14.04.88.04,3.45.28,3.87.4,3.1.53,4.44,2.04,5.16,4.09.33.99.46,1.98.46,2.97,0,3.17-.79,6.54-3.96,7.87h0Zm-40.4,38.67h5.08v.79c-.92,0-1.06.07-1.25.33s-.2.46-.2,1.25v4.62c0,.46,0,1.19.33,1.78.46.73,1.45,1.06,2.38,1.06.53,0,1.06-.07,1.52-.33,1.25-.66,1.39-1.91,1.39-3.1v-3.69c0-1.19,0-1.39-.26-1.65-.2-.26-.46-.33-1.25-.33v-.79h4.09v.79c-.73.07-.99.07-1.19.33s-.2.73-.2,1.19v4.16c0,1.06,0,2.71-1.45,3.76-.92.66-1.98.92-3.1.92-1.25,0-2.44-.33-3.36-.99-1.19-1.06-1.19-2.44-1.25-3.5v-4.16c0-1.39,0-1.65-1.25-1.65v-.79h-.03Zm17.94,7.19c.2.66.33,1.25.99,1.91.2.2.92.92,2.18.92,1.39,0,1.91-.92,1.91-1.72,0-.2,0-.46-.2-.73-.26-.53-.92-.79-1.72-1.25-.33-.2-.79-.4-1.19-.53-1.19-.66-2.51-1.25-2.51-3.17s1.52-2.97,3.36-2.97c1.45,0,2.38.53,2.71.79l.26-.66h.73l-.07,3.17h-.66c-.2-.53-.33-1.19-.79-1.65s-1.25-.73-2.05-.73c-.26,0-.66,0-.99.2-.46.26-.53.73-.53,1.06,0,.92.99,1.39,1.98,1.91.46.2.92.33,1.39.66.99.53,2.24,1.39,2.24,3.17,0,1.19-.53,2.24-1.39,2.77-.53.46-1.39.73-2.38.73-1.72,0-2.51-.79-2.9-1.06l-.33.73h-.73c.07-2.05.07-2.38.07-3.5h.59v-.07l.03.02Zm11.75-7.19h9.7l.2,3.36h-.86c0-.46-.07-1.06-.53-1.72-.53-.79-1.39-.79-1.98-.79h-.53v8.18c0,.92.53.92,1.52.92v.79h-5.34v-.79c1.06,0,1.45,0,1.52-.92v-8.25h-.73c-.26,0-.66,0-1.06.2-.99.46-1.06,1.52-1.25,2.38h-.86l.2-3.36h0Zm-59.78,0h9.7l.2,3.36h-.79c0-.46-.07-1.06-.53-1.72-.53-.79-1.39-.79-1.98-.79h-.53v8.18c0,.92.53.92,1.52.92v.79h-5.41v-.79c1.06,0,1.45,0,1.52-.92v-8.25h-.73c-.26,0-.66,0-1.06.2-.99.46-1.06,1.52-1.25,2.38h-.79s.13-3.36.13-3.36Zm24.22,8.78c-1.93-2.89-2.07-2.98-3.73-3.16.79,0,1.75-.09,2.45-.96.61-.61.79-1.4.79-1.93s-.09-1.31-.79-2.01-1.58-.7-2.45-.79h-6.04v.79c.96.09,1.05.09,1.31.18.26.18.26.44.26.7v7.44c0,.09,0,.35-.09.53-.18.26-.53.26-1.4.26v.79h5.34v-.79c-.88-.09-1.23-.09-1.4-.44-.09-.18-.09-.44-.09-.79v-2.63c.7-.09,1.05-.09,1.49.44.35.35.7.96,1.23,1.84.96,1.49.93,1.58,1.72,2.37h2.89v-.79c-.7,0-.76,0-1.37-.88m-5.95-3.85v-4.11h1.49c.44.09.61.09.88.35.53.35.61,1.05.61,1.66,0,.79-.26,1.58-.88,1.93-.18.09-.35.18-.61.18h-1.49m541.26-28.93h-129.24c-.65-7.75-6.98-13.96-14.86-14.6V16.61c0-.78-.65-1.42-1.42-1.42-.9,0-1.55.65-1.55,1.42v53.76c-7.75.78-13.96,6.85-14.73,14.6H163.42c-.78,0-1.42.65-1.42,1.42s.65,1.42,1.42,1.42h273.47c.78,8.4,7.63,14.86,16.28,14.86s15.51-6.46,16.16-14.86h129.24c.78,0,1.42-.52,1.42-1.42,0-.65-.65-1.42-1.29-1.42m-136.35,2.33c-1.16,0-1.81-.78-2.58-1.42-.52,6.07-3.88,11.11-10.34,11.11-1.29,0-2.46-.26-3.36-.52-3.49-1.16-4.91-4.14-4.91-7.11s2.07-6.46,4.91-8.14c.9-.52,1.81-.78,2.71-.78s1.81.13,2.33,1.16c1.16-1.29,3.23-2.84,3.23-4.39,0-.39-.26-.78-.26-1.42,0-.52.65-1.16,1.55-1.16s1.55.52,1.55,1.42c0,1.29-1.94,3.49-5.17,6.33-1.94,1.68-4.39,3.62-5.82,5.43-.9,1.03-1.55,1.94-1.55,2.84,0,1.03.52,1.81,1.55,2.2,1.03.78,2.58,1.03,3.75,1.03,5.3,0,9.05-3.23,9.05-8.79-.39-.39-1.42-1.55-2.58-1.55-.9,0-1.81.78-1.81,1.68,0,1.42,1.94.52,1.94,2.2,0,.9-.9,1.29-1.68,1.29-1.16,0-1.94-.9-1.94-1.94,0-2.46,3.1-5.17,5.43-5.17,2.71,0,4.39,3.75,5.82,3.75.39,0,.9-.26.9-.78,0-.65-.9-.9-.9-1.81,0-.65.26-1.16.9-1.16,1.16,0,1.55.9,1.55,1.81-.13,1.68-2.71,3.88-4.27,3.88m-13.69-3.48c0-1.16-.52-1.55-1.55-1.55-.52,0-.9.13-1.16.26-1.81.78-2.71,3.1-2.71,4.91,0,.65,0,1.29.13,1.94.78-1.16,1.55-2.07,2.58-2.97.9-.78,1.94-1.68,2.71-2.58m-253.57-21.98c-1.16,2.46-4.65,8.66-13.44,8.66-3.36,0-6.2-1.03-8.66-3.62-3.88-4.14-4.26-9.69-4.26-12.67,0-7.24,2.46-11.11,3.88-12.79,2.33-2.84,5.17-3.75,8.27-3.75,9.05,0,11.63,7.5,12.79,11.89h1.68l-.52-12.79h-1.42c-.52,1.29-.52,1.55-1.16,2.71-2.58-1.55-6.07-3.62-11.63-3.62-9.43,0-18.22,6.85-18.22,19.39,0,6.59,2.58,10.6,5.17,13.05,4.01,3.88,8.4,4.78,13.05,4.78,2.71,0,8.01-.13,12.92-5.17,1.81-1.81,2.58-3.23,3.23-4.65l-1.68-1.42h0Zm25.33,5.04l-9.31-22.62h-1.16l-.65,1.55-8.66,21.32c-1.16,2.84-1.94,3.49-4.65,3.75v1.16h9.18v-1.16c-1.94-.13-3.23-.52-3.23-1.81,0-.39.13-.78.52-1.94l1.94-5.04h9.69l2.2,5.69c.39,1.16.52,1.42.52,1.81,0,1.42-1.55,1.42-3.62,1.42v1.16h11.63v-1.16c-2.71-.13-3.23-1.29-4.39-4.14m-11.11-5.95h-4.26l4.26-10.73.13-.26c.9,2.71,1.03,3.1,2.07,5.69l2.22,5.28m32.79,8.57c-1.42,1.03-2.58,1.16-3.88,1.16h-3.62c-2.58-.13-3.23-1.03-3.36-3.49v-18.35c0-2.84,1.03-2.84,3.88-2.97v-1.29h-12.02v1.29c1.68.13,1.81.13,2.2.13,1.81.52,1.81,1.81,1.81,2.84v18.61c-.13,3.1-1.03,3.36-4.26,3.49v1.29h22.88l.52-8.53h-1.29c-.26,1.81-.65,4.14-2.84,5.82m15.87-1.81v-18.74c0-2.84,1.03-2.84,3.88-2.97v-1.29h-12.02v1.16c1.81.13,2.58.13,3.23.78s.65,1.42.65,2.2v18.35c-.13,3.62-.52,3.75-4.14,3.75v1.29h12.41v-1.29c-2.07,0-2.84-.13-3.49-.65-.52-.52-.52-1.16-.52-2.58m8.66-23.02v1.16c1.68.13,2.58.13,3.23.78.52.65.52,1.42.52,2.2v18.22c0,1.55,0,2.2-.26,2.84-.52,1.16-1.68,1.16-3.88,1.16v1.29h12.41v-1.29c-2.33-.13-2.71-.13-3.23-.52-.78-.52-.9-1.42-.9-3.49v-8.53h2.84c.9.13,2.2.13,2.97,1.29.52.78.52,1.94.52,2.84h1.29v-9.43h-1.29c0,.9-.13,2.2-.9,3.1-.78.78-1.55.78-2.46.78h-2.97v-10.86h5.3c1.81,0,3.1,0,4.26,1.29,1.03,1.03,1.55,2.58,2.07,4.01h1.16l-.78-6.72h-19.9v-.13h0Zm41.88-.26c-1.29-.26-2.58-.52-3.88-.52h-.13c-7.5.13-11.37,4.26-13.05,7.63-1.16,2.2-1.55,4.65-1.55,7.11,0,8.53,6.2,14.22,14.6,14.22h.13c9.05,0,14.73-6.33,14.73-14.6,0-7.75-5.3-12.54-10.86-13.83m3.23,24.04c-1.55,1.81-4.01,3.1-7.24,3.1h-.13c-3.23,0-5.3-1.16-6.33-2.2-2.2-2.07-2.84-5.04-3.1-6.33-.39-1.68-.52-3.36-.52-5.17,0-4.14.9-8.4,4.01-10.86,2.07-1.55,4.26-1.81,5.95-1.81,3.36,0,6.33,1.42,8.14,4.39,1.68,2.84,1.81,6.46,1.81,8.53.13,4.65-.78,8.4-2.58,10.34m59.97-22.48c3.1.26,3.88,1.16,3.88,4.14v15.77c-1.29-1.94-1.68-2.46-3.23-4.52l-12.02-16.67h-8.01v1.29c2.58.13,3.75.13,3.88,2.33v17.96c0,1.68-.13,3.49-1.81,4.26-.78.26-1.55.26-2.2.39v1.29h9.95v-1.29c-.9,0-2.71,0-3.62-1.42-.52-.78-.52-2.07-.52-3.1v-18.35c1.29,2.2,1.68,2.58,2.84,4.26l14.6,20.29h1.81v-21.97c.13-2.2.26-3.23,1.55-4.01.78-.39,1.55-.52,2.58-.52v-1.42h-9.56v1.29h-.13.01Zm21.45,21.71v-18.74c0-2.84,1.03-2.84,3.88-2.97v-1.29h-12.02v1.16c1.81.13,2.58.13,3.23.78.78.65.78,1.42.78,2.2v18.35c-.13,3.62-.65,3.75-4.26,3.75v1.29h12.54v-1.29c-2.07,0-2.84-.13-3.62-.65-.39-.52-.52-1.16-.52-2.58m32.17-.79l-9.18-22.62h-1.29l-.65,1.55-8.66,21.32c-1.16,2.84-1.81,3.49-4.52,3.75v1.16h9.05v-1.16c-1.94-.13-3.1-.52-3.1-1.81,0-.39.13-.78.52-1.94l1.94-5.04h9.69l2.2,5.69c.39,1.16.52,1.42.52,1.81,0,1.42-1.55,1.42-3.62,1.42v1.16h11.76v-1.16c-2.97-.13-3.62-1.29-4.65-4.14m-11.24-5.95h-4.14l4.26-10.73.13-.26c.9,2.71,1.16,3.1,2.07,5.69l2.2,5.43h-4.52v-.13h0Zm73.78-7.87c2.07-.13,5.3-.65,7.63-2.71,1.16-.9,2.58-2.71,2.58-5.43,0-5.17-4.26-7.24-7.24-7.75-1.29-.26-2.84-.26-4.91-.26h-17.19v1.55c2.97.13,3.88.13,4.65.9s.78,1.81.9,2.71v24.3c-.13,1.81-.13,2.97-1.55,3.75-.9.52-1.81.52-4.39.65v1.68h17.45c5.04,0,8.01-.26,10.99-2.58,2.07-1.68,3.23-3.75,3.23-6.98,0-1.81-.26-4.14-2.58-6.2-2.97-2.84-7.37-3.36-9.56-3.62m-7.75-14.35c1.42-.13,2.71-.13,4.14-.13.52,0,.9,0,1.55.13,1.29.13,2.84.39,3.88,1.42,1.81,1.42,1.81,4.01,1.81,5.17,0,1.42,0,5.17-3.75,6.59-.52.26-1.16.39-1.94.52-1.42.13-3.23.13-5.56.13v-13.83h-.13Zm9.18,31.15c-1.03.39-2.2.52-3.62.52h-.52c-1.42,0-2.84-.13-3.88-1.16-1.03-.78-1.03-1.68-1.16-2.58v-12.67c3.1.13,4.52.13,5.56.13.52,0,1.03.13,1.55.13,3.23.52,4.91,2.2,5.82,4.39.26.9.39,1.94.39,2.97,0,3.49-.78,6.98-4.14,8.27m35.53-2.98l-9.18-22.62h-1.29l-.65,1.55-8.66,21.32c-1.16,2.84-1.94,3.49-4.65,3.75v1.16h9.18v-1.16c-1.94-.13-3.23-.52-3.23-1.81,0-.39.13-.78.52-1.94l1.94-5.04h9.69l2.2,5.69c.39,1.16.52,1.42.52,1.81,0,1.42-1.55,1.42-3.62,1.42v1.16h11.63v-1.16c-2.58-.13-3.23-1.29-4.39-4.14m-6.8-5.95h-8.58l4.26-10.73.13-.26c.9,2.71,1.03,3.1,2.07,5.69m35.53-9.67c3.1.26,3.88,1.16,3.88,4.14v15.77c-1.16-1.94-1.68-2.46-3.1-4.52l-12.15-16.67h-8.01v1.29c2.58.13,3.75.13,3.88,2.33v17.96c-.13,1.68-.13,3.49-1.94,4.26-.78.26-1.55.26-2.2.39v1.29h9.95v-1.29c-.9,0-2.58,0-3.62-1.42-.52-.78-.52-2.07-.52-3.1v-18.35c1.29,2.2,1.55,2.58,2.84,4.26l14.6,20.29h1.81v-21.97c.13-2.2.26-3.23,1.42-4.01.78-.39,1.68-.52,2.58-.52v-1.42h-9.56v1.29h.14Zm37.09,22.61l-9.95-13.44,6.59-6.07c2.97-2.71,3.75-2.97,6.46-3.1v-1.29h-10.99v1.29c1.16.13,2.07.13,2.58.78.13.13.26.52.26.65,0,.65-.9,1.55-1.68,2.2l-9.31,8.66v-8.79c0-1.16,0-2.71,1.55-3.1.39-.13.52-.13,2.58-.26v-1.29h-12.02v1.29c1.94.13,2.71.13,3.36.9.52.65.52,1.42.52,2.2v18.48c0,.9,0,1.81-.65,2.58-.65.65-1.29.65-3.49.78v1.29h12.41v-1.29c-2.46-.13-2.84-.13-3.49-.65-.65-.65-.78-1.68-.78-2.46v-7.37l2.84-2.58,8.01,10.6c.26.26.52.52.65.78s.39.52.39.78c0,.52-.52.65-.78.78-.39,0-.78,0-2.2.13v1.29h12.15v-1.29c-3.1-.39-3.49-.39-5.04-2.46m-194.09,38.88l-.39,6.72h1.55c.26-1.68.52-3.88,2.58-4.78.9-.26,1.55-.26,2.2-.26h1.42v16.67c-.13,1.81-.9,1.81-3.23,1.81v1.68h11.11v-1.68c-2.2,0-3.1-.13-3.1-1.81v-16.67h1.03c1.29,0,2.84,0,4.01,1.68.9,1.16,1.03,2.46,1.16,3.49h1.55l-.26-6.72-19.64-.13h.01Zm40.45,19c-2.84-4.26-3.23-4.65-5.69-4.91,1.16,0,2.58-.13,3.62-1.42.9-.9,1.16-2.07,1.16-2.84s-.13-1.94-1.16-2.97-2.33-1.03-3.62-1.16h-8.92v1.16c1.42.13,1.55.13,1.94.26.39.26.39.65.39,1.03v10.99c0,.13,0,.52-.13.78-.26.39-.78.39-2.07.39v1.16h7.88v-1.16c-1.29-.13-1.81-.13-2.07-.65-.13-.26-.13-.65-.13-1.16v-3.88c1.03-.13,1.55-.13,2.2.65.52.52,1.03,1.42,1.81,2.71,1.42,2.2,1.55,2.58,2.71,3.75h4.26v-1.16c-1.03,0-1.29-.26-2.2-1.55m-8.79-5.69v-6.07h2.2c.65.13.9.13,1.29.52.78.52.9,1.55.9,2.46,0,1.16-.39,2.33-1.29,2.84-.26.13-.52.26-.9.26h-2.2m34.84-7.39h-5.99v1.17c.94.02,1.32.15,1.68.51.26.39.26.78.26,2.46v5.43c0,1.68-.13,3.49-1.94,4.39-.78.39-1.55.52-2.2.52-1.42,0-2.84-.52-3.49-1.55-.52-.78-.52-1.94-.52-2.58v-6.72c0-1.29,0-1.55.26-1.94.13-.39.52-.52,1.81-.52v-1.16h-7.63v1.16c1.94.13,1.94.52,1.94,2.46v6.2c0,1.68.13,3.62,1.94,5.17,1.29,1.16,3.1,1.55,4.91,1.55,1.68,0,3.23-.26,4.65-1.16,2.2-1.55,2.2-4.01,2.2-5.56v-6.2c0-.65,0-1.16.26-1.68.26-.39.83-.7,1.85-.71v-1.23h0Zm15.98,6.46c-.65-.39-1.29-.65-1.94-1.03-1.55-.65-2.97-1.55-2.97-2.84,0-.52.13-1.16.78-1.55.52-.26,1.03-.39,1.55-.39,1.16,0,2.33.52,3.1,1.16.65.65.9,1.55,1.16,2.46h.9l.13-4.65h-1.16l-.39.9c-.52-.39-1.81-1.16-4.01-1.16-2.58,0-4.91,1.55-4.91,4.39s2.07,3.75,3.75,4.65c.52.26,1.16.52,1.81.78,1.16.65,2.07,1.03,2.58,1.81.26.52.26.9.26,1.16,0,1.16-.9,2.46-2.84,2.46s-2.84-1.03-3.23-1.42c-.9-.9-1.16-1.68-1.42-2.84h-.9c0,1.81,0,2.2-.13,5.3h1.16l.52-1.16c.52.52,1.81,1.68,4.39,1.68,1.42,0,2.58-.52,3.36-1.03,1.29-.78,2.07-2.46,2.07-4.14-.26-2.71-2.2-3.75-3.62-4.52m24.81-6.48h-14.35l-.26,4.91h1.16c.13-1.16.39-2.84,1.81-3.49.52-.13,1.16-.13,1.55-.13h1.03v12.02c-.13,1.29-.65,1.29-2.33,1.29v1.16h8.01v-1.16c-1.55,0-2.2-.13-2.2-1.29v-12.02h.65c1.03,0,2.2,0,2.97,1.16.65.78.78,1.81.78,2.46h1.16v-4.91h.02Zm3.75-.52c0-2.97,2.46-5.43,5.56-5.43s5.56,2.46,5.56,5.43-2.46,5.43-5.56,5.43-5.56-2.46-5.56-5.43m1.16,0c0,2.46,1.94,4.39,4.39,4.39s4.39-1.94,4.39-4.39-1.94-4.39-4.39-4.39-4.39,1.94-4.39,4.39m3.62,1.81c0,.39.13.39.52.39v.26h-2.2v-.26c.39,0,.65.13.65-.26v-3.75c0-.26-.26-.26-.52-.26v-.39h2.33c.9,0,1.81.13,1.81,1.29,0,.65-.65,1.16-1.29,1.29h0c.9.13,1.16,2.07,1.81,2.07v.26h-1.03c-.52,0-.65-.52-.9-1.03-.13-.39-.39-1.16-.78-1.16h-.39v1.55h0Zm0-1.94h.26c.65,0,1.03-.39,1.03-1.03s-.39-1.03-.9-1.03h-.26c-.26,0-.26.13-.26.13v1.94h.13Zm-164.91-44.07l-3.88-5.3c-2.58-3.62-2.84-3.88-6.2-4.65,1.68-.13,3.75-.52,5.56-2.33,1.55-1.42,1.94-3.1,1.94-4.65,0-2.97-1.81-5.3-4.52-6.33-1.29-.52-2.84-.65-4.52-.78-1.03-.13-2.07-.13-2.97-.13h-9.69v1.29c2.2.13,2.71.13,3.23.78.52.52.65,1.42.65,2.58v18.22c0,3.1-1.03,3.36-4.14,3.49v1.16h12.41v-1.16c-1.94-.13-2.71-.13-3.36-.78-.78-.65-.78-1.68-.78-2.84v-8.14c2.2-.13,3.62-.13,4.52.52,1.16.65,2.07,2.2,4.01,5.17.52.78,2.46,4.14,2.84,4.78.78,1.29,1.42,1.81,2.2,2.58h6.33v-1.29c-1.81.13-2.07-.13-3.62-2.2h-.01Zm-11.41-10.6h-4.74v-12.04h4.74c.84,0,1.39.25,1.95.51,1.92,1,2.76,3.25,2.78,5.51h-.31.31c-.02,2.26-.86,4.5-2.78,5.51-.56.25-1.12.51-1.95.51Z"/></svg>