<?xml version="1.0" encoding="UTF-8"?>
<svg xmlns="http://www.w3.org/2000/svg" viewBox="0 0 599.99 147.52">
  <defs>
    <style>
      .cls-1 {
        fill: #424242;
        stroke-width: 0px;
      }
    </style>
  </defs>
  <g id="Layer_1" data-name="Layer 1" focusable="true">
    <g>
      <path class="cls-1" d="M116.82,70.01c1.98-1.65,3.17-3.7,3.17-6.81,0-1.72-.26-4.1-2.64-6.15h-.02c-2.9-2.52-7.06-2.98-9.24-3.25,1.91-.26,4.95-.66,7.26-2.64,1.19-.93,2.51-2.64,2.51-5.35,0-5.09-4.16-7.07-6.93-7.6-1.22-.26-2.69-.26-4.64-.26h-16.42v1.52c2.77.07,3.69.2,4.49.92.73.73.79,1.78.79,2.64v23.55c0,1.78-.07,2.9-1.45,3.63-.79.46-1.72.53-4.22.66v1.65h16.76c4.82,0,7.7-.28,10.58-2.51ZM104.77,39.65c.46,0,.99,0,1.52.07,1.25.07,2.46.33,3.59,1.26,1.72,1.52,1.72,3.97,1.72,5.09,0,1.39,0,4.96-3.63,6.41-.53.26-1.53.46-2.25.59-1.33.17-2.88.17-4.83.11v-13.46h-.01c1.39-.07,2.64-.07,3.89-.07ZM105.7,70.59c-1.39,0-2.71,0-3.76-.99-.99-.79-1.06-1.65-1.06-2.64v-12.21c1.32,0,2.32,0,3.14.04.88.04,3.45.28,3.87.4,3.1.53,4.44,2.04,5.16,4.09.33.99.46,1.98.46,2.97,0,3.17-.79,6.54-3.96,7.87h0c-.99.34-2.18.47-3.43.47h-.42Z"/>
      <path class="cls-1" d="M39.06,108.8l-.13,3.36h.79c.19-.86.26-1.92,1.25-2.38.4-.2.8-.2,1.06-.2h.73v8.25c-.07.92-.46.92-1.52.92v.79h5.41v-.79c-.99,0-1.52,0-1.52-.92v-8.18h.53c.59,0,1.45,0,1.98.79.46.66.53,1.26.53,1.72h.79l-.2-3.36h-9.7Z"/>
      <path class="cls-1" d="M515.48,107.46c-3.1,0-5.56,2.46-5.56,5.43s2.46,5.43,5.56,5.43,5.56-2.46,5.56-5.43-2.46-5.43-5.56-5.43ZM515.47,117.28c-2.45,0-4.39-1.93-4.39-4.39h0c0-2.45,1.94-4.39,4.39-4.39s4.39,1.94,4.39,4.39-1.94,4.39-4.39,4.39Z"/>
      <path class="cls-1" d="M514.06,70.88c-1.94-.13-3.23-.52-3.23-1.81,0-.39.13-.78.52-1.94l1.94-5.04h9.69l2.2,5.69c.39,1.16.52,1.42.52,1.81,0,1.42-1.55,1.42-3.62,1.42v1.16h11.63v-1.16c-2.58-.13-3.23-1.29-4.39-4.14h-.01s-9.18-22.61-9.18-22.61h-1.29l-.65,1.55-8.66,21.32c-1.16,2.84-1.94,3.49-4.65,3.75v1.16h9.18v-1.16ZM518.2,50.19l.13-.26c.9,2.71,1.03,3.1,2.07,5.69l2.12,5.3h-8.58l4.26-10.73Z"/>
      <path class="cls-1" d="M546.24,70.9c-.9,0-2.58,0-3.62-1.42-.52-.78-.52-2.07-.52-3.1v-18.35c1.29,2.2,1.55,2.58,2.84,4.26l14.6,20.29h1.81v-21.97c.13-2.2.26-3.23,1.42-4.01.78-.39,1.68-.52,2.58-.52v-1.42h-9.56v1.29h.14c3.1.26,3.88,1.16,3.88,4.14v15.77c-1.16-1.94-1.68-2.46-3.1-4.52l-12.15-16.67h-8.01v1.29c2.58.13,3.75.13,3.88,2.33v17.96c-.13,1.68-.13,3.49-1.94,4.26-.78.26-1.55.26-2.2.39v1.29h9.95v-1.29Z"/>
      <path class="cls-1" d="M598.7,84.97h.01s-129.24.01-129.24.01c-.65-7.75-6.98-13.96-14.86-14.6V16.61c0-.78-.65-1.42-1.42-1.42-.9,0-1.55.65-1.55,1.42v53.76c-7.75.78-13.96,6.85-14.73,14.6H163.42c-.78,0-1.42.65-1.42,1.42s.65,1.42,1.42,1.42h273.47c.78,8.4,7.63,14.86,16.28,14.86s15.51-6.46,16.16-14.86h129.24c.78,0,1.42-.52,1.42-1.42,0-.65-.65-1.42-1.29-1.42ZM462.35,87.29h0c-1.16.01-1.81-.77-2.58-1.41-.52,6.07-3.88,11.11-10.34,11.11-1.29,0-2.46-.26-3.36-.52-3.49-1.16-4.91-4.14-4.91-7.11s2.07-6.46,4.91-8.14c.9-.52,1.81-.78,2.71-.78s1.81.13,2.33,1.16c1.16-1.29,3.23-2.84,3.23-4.39,0-.39-.26-.78-.26-1.42,0-.52.65-1.16,1.55-1.16s1.55.52,1.55,1.42c0,1.29-1.94,3.49-5.17,6.33-1.94,1.68-4.39,3.62-5.82,5.43-.9,1.03-1.55,1.94-1.55,2.84,0,1.03.52,1.81,1.55,2.2,1.03.78,2.58,1.03,3.75,1.03,5.3,0,9.05-3.23,9.05-8.79-.39-.39-1.42-1.55-2.58-1.55-.9,0-1.81.78-1.81,1.68,0,1.42,1.94.52,1.94,2.2,0,.9-.9,1.29-1.68,1.29-1.16,0-1.94-.9-1.94-1.94,0-2.46,3.1-5.17,5.43-5.17,2.71,0,4.39,3.75,5.82,3.75.39,0,.9-.26.9-.78,0-.65-.9-.9-.9-1.81,0-.65.26-1.16.9-1.16,1.16,0,1.55.9,1.55,1.81-.13,1.68-2.71,3.88-4.27,3.88Z"/>
      <path class="cls-1" d="M581.24,71.03c-2.46-.13-2.84-.13-3.49-.65-.65-.65-.78-1.68-.78-2.46v-7.37l2.84-2.58,8.01,10.6c.26.26.52.52.65.78s.39.52.39.78c0,.52-.52.65-.78.78-.39,0-.78,0-2.2.13v1.29h12.15v-1.29c-3.1-.39-3.49-.39-5.04-2.46l.03-.02-9.95-13.44,6.59-6.07c2.97-2.71,3.75-2.97,6.46-3.1v-1.29h-10.99v1.29c1.16.13,2.07.13,2.58.78.13.13.26.52.26.65,0,.65-.9,1.55-1.68,2.2l-9.31,8.66v-8.79c0-1.16,0-2.71,1.55-3.1.39-.13.52-.13,2.58-.26v-1.29h-12.02v1.29c1.94.13,2.71.13,3.36.9.52.65.52,1.42.52,2.2v18.48c0,.9,0,1.81-.65,2.58-.65.65-1.29.65-3.49.78v1.29h12.41v-1.29Z"/>
      <path class="cls-1" d="M501.26,69.86c2.07-1.68,3.23-3.75,3.23-6.98,0-1.81-.26-4.14-2.58-6.2-2.97-2.84-7.37-3.36-9.56-3.62h-.01c2.07-.14,5.3-.66,7.63-2.72,1.16-.9,2.58-2.71,2.58-5.43,0-5.17-4.26-7.24-7.24-7.75-1.29-.26-2.84-.26-4.91-.26h-17.19v1.55c2.97.13,3.88.13,4.65.9.77.77.78,1.81.9,2.71v24.3c-.13,1.81-.13,2.97-1.55,3.75-.9.52-1.81.52-4.39.65v1.68h17.45c5.04,0,8.01-.26,10.99-2.58ZM488.74,38.58c.52,0,.9,0,1.55.13,1.29.13,2.84.39,3.88,1.42,1.81,1.42,1.81,4.01,1.81,5.17,0,1.42,0,5.17-3.75,6.59-.52.26-1.16.39-1.94.52-1.42.13-3.23.13-5.56.13v-13.83h-.13c1.42-.13,2.71-.13,4.14-.13ZM489.64,70.38c-1.42,0-2.84-.13-3.88-1.16-1.03-.78-1.03-1.68-1.16-2.58v-12.67c3.1.13,4.52.13,5.56.13.52,0,1.03.13,1.55.13,3.23.52,4.91,2.2,5.82,4.39.26.9.39,1.94.39,2.97,0,3.49-.78,6.98-4.14,8.27-1.03.39-2.2.52-3.62.52h-.52Z"/>
      <path class="cls-1" d="M445.95,86.4c.9-.78,1.94-1.68,2.71-2.58h0c0-1.17-.52-1.56-1.55-1.56-.52,0-.9.13-1.16.26-1.81.78-2.71,3.1-2.71,4.91,0,.65,0,1.29.13,1.94.78-1.16,1.55-2.07,2.58-2.97Z"/>
      <path class="cls-1" d="M439.33,126.48l.02-.02c-2.84-4.26-3.23-4.65-5.69-4.91,1.16,0,2.58-.13,3.62-1.42.9-.9,1.16-2.07,1.16-2.84s-.13-1.94-1.16-2.97c-1.03-1.03-2.33-1.03-3.62-1.16h-8.92v1.16c1.42.13,1.55.13,1.94.26.39.26.39.65.39,1.03v10.99c0,.13,0,.52-.13.78-.26.39-.78.39-2.07.39v1.16h7.88v-1.16c-1.29-.13-1.81-.13-2.07-.65-.13-.26-.13-.65-.13-1.16v-3.88c1.03-.13,1.55-.13,2.2.65.52.52,1.03,1.42,1.81,2.71,1.42,2.2,1.55,2.58,2.71,3.75h4.26v-1.16c-1.03,0-1.29-.26-2.2-1.55ZM432.74,120.8h-2.2v-6.08h2.2c.65.13.9.13,1.29.52.78.52.9,1.55.9,2.46,0,1.16-.39,2.33-1.29,2.84-.26.13-.52.26-.9.26Z"/>
      <path class="cls-1" d="M398.9,107.46l-.39,6.72h1.55c.26-1.68.52-3.88,2.58-4.78.9-.26,1.55-.26,2.2-.26h1.42v16.67c-.13,1.81-.9,1.81-3.23,1.81v1.68h11.11v-1.68c-2.2,0-3.1-.13-3.1-1.81v-16.67h1.03c1.29,0,2.84,0,4.01,1.68.9,1.16,1.03,2.46,1.16,3.49h1.55l-.26-6.72-19.63-.13Z"/>
      <path class="cls-1" d="M491.56,118.32h1.16c.13-1.16.39-2.84,1.81-3.49.52-.13,1.16-.13,1.55-.13h1.03v12.02c-.13,1.29-.65,1.29-2.33,1.29v1.16h8.01v-1.16c-1.55,0-2.2-.13-2.2-1.29v-12.02h.65c1.03,0,2.2,0,2.97,1.16.65.78.78,1.81.78,2.46h1.16v-4.91h-14.33l-.26,4.91Z"/>
      <path class="cls-1" d="M481.36,119.89v-.02c-.65-.39-1.29-.65-1.94-1.03-1.55-.65-2.97-1.55-2.97-2.84,0-.52.13-1.16.78-1.55.52-.26,1.03-.39,1.55-.39,1.16,0,2.33.52,3.1,1.16.65.65.9,1.55,1.16,2.46h.9l.13-4.65h-1.16l-.39.9c-.52-.39-1.81-1.16-4.01-1.16-2.58,0-4.91,1.55-4.91,4.39s2.07,3.75,3.75,4.65c.52.26,1.16.52,1.81.78,1.16.65,2.07,1.03,2.58,1.81.26.52.26.9.26,1.16,0,1.16-.9,2.46-2.84,2.46s-2.84-1.03-3.23-1.42c-.9-.9-1.16-1.68-1.42-2.84h-.9c0,1.81,0,2.2-.13,5.3h1.16l.52-1.16c.52.52,1.81,1.68,4.39,1.68,1.42,0,2.58-.52,3.36-1.03,1.29-.78,2.07-2.46,2.07-4.14-.26-2.71-2.2-3.75-3.62-4.52Z"/>
      <path class="cls-1" d="M459.39,114.58c.94.02,1.32.15,1.68.51.26.39.26.78.26,2.46v5.43c0,1.68-.13,3.49-1.94,4.39-.78.39-1.55.52-2.2.52-1.42,0-2.84-.52-3.49-1.55-.52-.78-.52-1.94-.52-2.58v-6.72c0-1.29,0-1.55.26-1.94.13-.39.52-.52,1.81-.52v-1.16h-7.63v1.16c1.94.13,1.94.52,1.94,2.46v6.2c0,1.68.13,3.62,1.94,5.17,1.29,1.16,3.1,1.55,4.91,1.55,1.68,0,3.23-.26,4.65-1.16,2.2-1.55,2.2-4.01,2.2-5.56v-6.2c0-.65,0-1.16.26-1.68.26-.39.83-.7,1.85-.71v-1.23h0s-5.99,0-5.99,0v1.17Z"/>
      <path class="cls-1" d="M141.72,45.06c-3.69-8.78-9.04-16.69-15.83-23.42-6.8-6.8-14.65-12.07-23.42-15.83-9.11-3.83-18.74-5.81-28.71-5.81s-19.6,1.98-28.7,5.81c-8.78,3.69-16.69,9.04-23.42,15.83-6.8,6.8-12.07,14.65-15.83,23.42C1.98,54.17,0,63.8,0,73.76s1.98,19.6,5.81,28.7c3.69,8.78,9.04,16.69,15.83,23.42,6.8,6.8,14.65,12.07,23.42,15.83,9.11,3.83,18.74,5.81,28.7,5.81s19.6-1.98,28.7-5.81c8.78-3.69,16.69-9.04,23.42-15.83,6.8-6.8,12.07-14.65,15.83-23.42,3.83-9.11,5.81-18.74,5.81-28.7-.07-9.9-1.98-19.6-5.81-28.7h.01ZM133.6,99.1c-3.3,7.72-7.98,14.71-13.92,20.65s-12.93,10.69-20.65,13.92c-7.98,3.36-16.49,5.08-25.27,5.08s-17.29-1.72-25.27-5.08c-7.72-3.3-14.71-7.98-20.65-13.92s-10.69-12.93-13.92-20.65c-3.36-7.98-5.08-16.49-5.08-25.27s1.72-17.29,5.08-25.27c3.3-7.72,7.98-14.71,13.92-20.65s12.93-10.69,20.65-13.92c7.98-3.36,16.49-5.08,25.27-5.08s17.29,1.72,25.27,5.08c7.72,3.3,14.71,7.98,20.65,13.92s10.69,12.93,13.92,20.65c3.36,7.98,5.08,16.49,5.08,25.27s-1.72,17.29-5.08,25.27Z"/>
      <path class="cls-1" d="M516,113.01c.64-.13,1.29-.64,1.29-1.29,0-1.16-.91-1.29-1.81-1.29h-2.33v.39c.26,0,.52,0,.52.26v3.75c0,.39-.26.26-.65.26v.26h2.2v-.26c-.39,0-.52,0-.52-.39h0v-1.55h.39c.39,0,.65.77.78,1.16.25.51.38,1.03.9,1.03h1.03v-.26c-.65,0-.91-1.94-1.81-2.07ZM514.96,112.76h-.26s-.13.01-.13.01v-1.94s0-.13.26-.13h.26c.51,0,.9.39.9,1.03s-.38,1.03-1.03,1.03Z"/>
      <path class="cls-1" d="M91.89,113.2c-.47-.33-.93-.46-1.39-.66-.99-.52-1.98-.99-1.98-1.91,0-.33.07-.8.53-1.06.33-.2.73-.2.99-.2.8,0,1.59.27,2.05.73s.59,1.12.79,1.65h.66l.07-3.17h-.73l-.26.66c-.33-.26-1.26-.79-2.71-.79-1.84,0-3.36,1.05-3.36,2.97s1.32,2.51,2.51,3.17c.4.13.86.33,1.19.53.8.46,1.46.72,1.72,1.25.2.27.2.53.2.73,0,.8-.52,1.72-1.91,1.72-1.26,0-1.98-.72-2.18-.92-.66-.66-.79-1.25-.99-1.91l-.03-.02v.07h-.59c0,1.12,0,1.45-.07,3.5h.73l.33-.73c.39.27,1.18,1.06,2.9,1.06.99,0,1.85-.27,2.38-.73.86-.53,1.39-1.58,1.39-2.77,0-1.78-1.25-2.64-2.24-3.17Z"/>
      <path class="cls-1" d="M98.84,108.8l-.2,3.36h.86c.19-.86.26-1.92,1.25-2.38.4-.2.8-.2,1.06-.2h.73v8.25c-.07.92-.46.92-1.52.92v.79h5.34v-.79c-.99,0-1.52,0-1.52-.92v-8.18h.53c.59,0,1.45,0,1.98.79.46.66.53,1.26.53,1.72h.86l-.2-3.36h-9.7Z"/>
      <path class="cls-1" d="M76.89,109.53c.79,0,1.05.07,1.25.33.26.26.26.46.26,1.65v3.69c0,1.19-.14,2.44-1.39,3.1-.46.26-.99.33-1.52.33-.93,0-1.92-.33-2.38-1.06-.33-.59-.33-1.32-.33-1.78v-4.62c0-.79,0-.99.2-1.25.19-.26.33-.33,1.25-.33v-.79h-5.05v.79c1.25,0,1.25.26,1.25,1.65v4.16c.06,1.06.06,2.44,1.25,3.5.92.66,2.11.99,3.36.99,1.12,0,2.18-.26,3.1-.92,1.45-1.05,1.45-2.7,1.45-3.76v-4.16c0-.46,0-.93.2-1.19.2-.26.46-.26,1.19-.33v-.79h-4.09v.79Z"/>
      <path class="cls-1" d="M69.08,85.64c-.07-.99-.59-1.25-1.32-1.19-.33,0-.73,0-.99.2-1.45.66-2.18,2.71-2.11,4.16,0,.53.13,1.06.33,1.65.53-.92,1.19-1.78,1.91-2.51.66-.79,1.39-1.52,2.18-2.31Z"/>
      <path class="cls-1" d="M122.52,85.17h0s-33.25,0-33.25,0c-.99-7.26-6.8-13.06-14.12-13.99h-.2V24.28c0-.86-.73-1.58-1.58-1.58-.92,0-1.58.73-1.58,1.58v46.84c-7.72.59-13.92,6.47-14.91,14.05H24.54c-.86,0-1.58.73-1.58,1.58,0,.92.73,1.58,1.58,1.58h32.2v.53c.73,8.31,7.72,14.85,16.23,14.85s15.5-6.53,16.23-14.85v-.53h33.19c.86,0,1.58-.73,1.58-1.58.13-.92-.59-1.58-1.45-1.58ZM81.59,87.89c-1.1.06-1.63-.46-2.36-.99,0,5.61-2.64,10.29-8.58,10.82-1.19.07-2.18,0-3.1-.26-3.17-.86-4.68-3.43-4.88-6.07-.2-2.57,1.39-6,3.76-7.72.79-.46,1.65-.86,2.44-.92.92-.07,1.72.07,2.18.79,1.12-1.32,2.64-2.71,2.57-4.22,0-.33-.26-.66-.33-1.19-.07-.59.53-1.25,1.19-1.32.86-.07,1.39.26,1.52,1.19.13,1.19-1.52,3.3-4.16,6.14-1.65,1.72-3.56,3.69-4.82,5.41-.73.99-1.12,1.91-1.06,2.57.07.92.66,1.52,1.45,1.98,1.06.53,2.44.73,3.43.59,4.75-.4,8.05-3.69,7.65-8.64-.46-.33-1.39-1.25-2.51-1.19-.92.07-1.65.92-1.58,1.72.13,1.19,1.85.26,1.91,1.72.07.79-.73,1.25-1.39,1.32-.99.07-1.85-.66-1.91-1.65-.2-2.31,2.38-4.88,4.49-5.08,2.51-.2,4.22,3.04,5.54,2.9.4,0,.86-.4.86-.86-.07-.59-.99-.79-1.06-1.52-.07-.59.2-1.12.79-1.19.92-.07,1.39.66,1.45,1.58,0,1.85-2.1,3.95-3.49,4.09Z"/>
      <path class="cls-1" d="M63.4,117.75l-.12-.17c-1.93-2.89-2.07-2.98-3.73-3.16.79,0,1.75-.09,2.45-.96.61-.61.79-1.4.79-1.93s-.09-1.31-.79-2.01-1.58-.7-2.45-.79h-6.04v.79c.96.09,1.05.09,1.31.18.26.18.26.44.26.7v7.44c0,.09,0,.35-.09.53-.18.26-.53.26-1.4.26v.79h5.34v-.79c-.88-.09-1.23-.09-1.4-.44-.09-.18-.09-.44-.09-.79v-2.63c.7-.09,1.05-.09,1.49.44.35.35.7.96,1.23,1.84.96,1.49.93,1.58,1.72,2.37h2.89v-.79c-.7,0-.76,0-1.37-.88ZM57.45,113.91v-4.12h1.49c.44.09.61.09.88.35.53.35.61,1.05.61,1.66,0,.79-.26,1.58-.88,1.93-.18.09-.35.18-.61.18h-1.49Z"/>
      <g>
        <path class="cls-1" d="M180.98,35.52h17.68v2.27h-1.93c-1.32,0-2.19.13-2.62.39-.43.26-.65.6-.65,1.03,0,.39.18,1.04.55,1.95l9.06,21.88,7.42-18.68c.5-1.25.74-2.42.74-3.49,0-1.01-.3-1.77-.9-2.29-.6-.52-1.51-.78-2.73-.78h-1.64v-2.27h13.96v2.27h-1.05c-.9,0-1.7.31-2.4.93-.71.62-1.39,1.73-2.04,3.32l-12.29,30.37h-2.91l-13.22-31.91c-.44-1.09-.94-1.81-1.51-2.17-.57-.36-1.49-.54-2.76-.54h-.76v-2.27Z"/>
        <path class="cls-1" d="M235.38,43.54l10.56,25.27c.3.71.64,1.19.99,1.45.36.25.83.38,1.41.38h1.03v1.77h-13.22v-1.77h1.24c.98,0,1.65-.11,2.02-.32s.55-.5.55-.86c0-.28-.08-.6-.23-.97l-2.17-5.22h-10.54l-1,2.38c-.42.99-.63,1.73-.63,2.21,0,.83.31,1.49.92,2.01.61.51,1.44.77,2.5.77h.9v1.77h-10.7v-1.77h.61c.69,0,1.29-.22,1.82-.65.74-.61,1.31-1.39,1.72-2.34l10.1-24.11h2.14ZM232.32,50.67l-4.51,10.73h8.98l-4.47-10.73Z"/>
        <path class="cls-1" d="M250.53,44.25h8.74l15.25,19.31v-13.12c0-1.29-.37-2.33-1.1-3.11-.74-.78-1.78-1.22-3.14-1.3v-1.77h10.28v1.77c-1.43.15-2.46.58-3.08,1.29-.62.71-.93,1.75-.93,3.13v21.98h-2.2l-17.36-22.22v15.39c0,1.76.4,3.05,1.21,3.85s1.81,1.21,3,1.21h.48v1.77h-11.37v-1.77h.78c1.12,0,2.06-.44,2.82-1.33s1.14-2.03,1.14-3.42v-18.18c-.85-1.12-1.94-1.69-3.26-1.69h-1.26v-1.77Z"/>
        <path class="cls-1" d="M297.78,36.3h11.21l19.55,24.76v-16.82c0-1.66-.47-2.99-1.42-3.99s-2.29-1.56-4.03-1.67v-2.27h13.18v2.27c-1.84.2-3.16.74-3.96,1.65-.8.9-1.2,2.24-1.2,4.02v28.17h-2.82l-22.25-28.49v19.73c0,2.26.52,3.91,1.55,4.94,1.03,1.03,2.31,1.55,3.84,1.55h.61v2.27h-14.58v-2.27h1c1.43,0,2.64-.57,3.61-1.71s1.46-2.6,1.46-4.39v-23.31c-1.09-1.44-2.48-2.16-4.18-2.16h-1.61v-2.27Z"/>
        <path class="cls-1" d="M338.95,44.25h24.53l.55,9.85h-1.68c-.39-2.32-.89-4-1.48-5.02-.59-1.02-1.37-1.79-2.32-2.29-.96-.51-2.21-.76-3.76-.76h-3.85c-.6,0-1.03.12-1.29.35-.27.23-.4.56-.4.98v9.77h1.31c1.51,0,2.68-.43,3.51-1.29.83-.86,1.32-2.25,1.48-4.17h1.71v13.1h-1.71c-.11-2.17-.59-3.7-1.43-4.59s-2.1-1.33-3.79-1.33h-1.09v10.42c0,.46.13.78.4.97.41.28.99.42,1.75.42h3.39c2.32,0,4.22-.74,5.69-2.23s2.39-3.73,2.74-6.72h1.71l-.42,10.72h-25.58v-1.77h2.53c.57,0,1.01-.15,1.3-.44.3-.29.45-.69.45-1.18v-21.67c0-.46-.15-.79-.45-1.01-.3-.22-.83-.32-1.61-.32h-2.23v-1.77Z"/>
        <path class="cls-1" d="M386.48,45.84l1.77-2.51h1.35l.17,9.73h-1.71c-.89-2.79-2.15-4.88-3.79-6.27-1.64-1.39-3.45-2.09-5.43-2.09-1.69,0-3.06.46-4.12,1.38-1.06.92-1.59,2.02-1.59,3.3,0,.76.21,1.46.63,2.09.42.63,1.09,1.18,2.03,1.63.93.45,2.56.92,4.9,1.4,2.73.57,4.61,1.08,5.65,1.54,1.65.74,2.89,1.71,3.72,2.92.83,1.21,1.24,2.69,1.24,4.43,0,2.6-.9,4.68-2.68,6.23-2.16,1.87-4.83,2.8-8.02,2.8-2.93,0-5.61-1.02-8.04-3.07l-2.23,2.78h-1.41v-10.44h1.68c1.66,5.95,5.04,8.93,10.12,8.93,2.08,0,3.7-.48,4.85-1.44,1.15-.96,1.73-2.15,1.73-3.59,0-1-.25-1.84-.76-2.52-.51-.68-1.29-1.23-2.36-1.65-.58-.23-2.03-.59-4.34-1.08-3.11-.69-5.32-1.39-6.65-2.12-1.33-.73-2.3-1.62-2.92-2.68-.62-1.06-.93-2.35-.93-3.87,0-2.56.86-4.65,2.58-6.27,1.72-1.62,4.03-2.43,6.92-2.43s5.33.96,7.64,2.88Z"/>
        <path class="cls-1" d="M412.49,45.84l1.77-2.51h1.35l.17,9.73h-1.71c-.89-2.79-2.15-4.88-3.79-6.27-1.64-1.39-3.45-2.09-5.43-2.09-1.69,0-3.06.46-4.12,1.38-1.06.92-1.59,2.02-1.59,3.3,0,.76.21,1.46.63,2.09.42.63,1.09,1.18,2.03,1.63.93.45,2.56.92,4.9,1.4,2.73.57,4.61,1.08,5.65,1.54,1.65.74,2.89,1.71,3.72,2.92.83,1.21,1.24,2.69,1.24,4.43,0,2.6-.9,4.68-2.68,6.23-2.16,1.87-4.83,2.8-8.02,2.8-2.93,0-5.61-1.02-8.04-3.07l-2.23,2.78h-1.41v-10.44h1.68c1.66,5.95,5.04,8.93,10.12,8.93,2.08,0,3.7-.48,4.85-1.44,1.15-.96,1.73-2.15,1.73-3.59,0-1-.25-1.84-.76-2.52-.51-.68-1.29-1.23-2.36-1.65-.58-.23-2.03-.59-4.34-1.08-3.11-.69-5.32-1.39-6.65-2.12-1.33-.73-2.3-1.62-2.92-2.68-.62-1.06-.93-2.35-.93-3.87,0-2.56.86-4.65,2.58-6.27,1.72-1.62,4.03-2.43,6.92-2.43s5.33.96,7.64,2.88Z"/>
      </g>
      <path class="cls-1" d="M27.15,37.53h16.97v2.18h-1.85c-1.27,0-2.11.12-2.52.38s-.62.58-.62.98c0,.38.17,1,.52,1.88l8.7,21,7.13-17.93c.48-1.2.71-2.32.71-3.35,0-.97-.29-1.7-.87-2.2s-1.45-.75-2.62-.75h-1.57v-2.18h13.41v2.18h-1.01c-.86,0-1.63.3-2.31.89s-1.33,1.66-1.96,3.19l-11.8,29.16h-2.8l-12.69-30.63c-.42-1.05-.91-1.74-1.45-2.09s-1.43-.52-2.65-.52h-.73v-2.18Z"/>
    </g>
  </g>
</svg>