<svg id="Layer_1" data-name="Layer 1" xmlns="http://www.w3.org/2000/svg" viewBox="0 0 600 250"><rect x="365" width="2" height="108" transform="translate(732 108) rotate(180)"/><path d="M419.44,39.66l8.82-23,8.82,23,8.73-22.36H450l-13,32.46-8.82-22.9-8.82,22.9-13-32.46h4.23Z"/><path d="M455,17.3h16.76v3.56H458.88V29.6h12.5v3.56h-12.5V45h12.87v3.56H455Z"/><path d="M483.48,40.69l-3.56,7.83h-4.18L490.64,16l14.9,32.54h-4.18l-3.56-7.83Zm7.16-16.18L485.1,37.13h11.09Z"/><path d="M514.55,45H524v3.56H510.65V17.3h3.9Z"/><path d="M536.25,48.52h-3.89V20.86H525V17.3h18.71v3.56h-7.41Z"/><path d="M567.64,29.89V17.3h3.89V48.52h-3.89v-15H552.78v15h-3.89V17.3h3.89V29.89Z"/><path d="M412.13,82.54l-3.56,7.83h-4.18l14.9-32.54,14.9,32.54H430l-3.56-7.83Zm7.16-16.18L413.74,79h11.1Z"/><path d="M437.43,59.15h6.46c9.56,0,17.51,5.05,17.51,15.45,0,10.63-7.78,15.77-17.63,15.77h-6.34Zm3.89,27.66h1.37c7.95,0,14.82-3,14.82-12s-6.87-12.05-14.82-12.05h-1.37Z"/><path d="M475.7,82.25,485,59.15h4.26L475.7,92,462.12,59.15h4.26Z"/><path d="M497.48,90.37h-3.9V59.15h3.9Z"/><path d="M516.62,65.07a5.36,5.36,0,0,0-5-2.94c-2.48,0-5.21,1.7-5.21,4.43,0,2.45,2.4,3.73,4.34,4.48l2.24.87c4.43,1.73,7.74,4.18,7.74,9.39a9.84,9.84,0,0,1-19.62,1l3.93-.82a5.9,5.9,0,1,0,11.8-.17c0-3.35-2.69-4.8-5.38-5.92l-2.16-.91c-3.56-1.53-6.78-3.56-6.78-7.91,0-5.05,4.47-8.07,9.19-8.07a8.92,8.92,0,0,1,8,4.72Z"/><path d="M556.24,74.76a16.36,16.36,0,0,1-32.71,0,16.36,16.36,0,0,1,32.71,0Zm-3.9,0a12.46,12.46,0,1,0-24.92,0,12.46,12.46,0,1,0,24.92,0Z"/><path d="M579.52,90.37H574.8l-9.19-13.21H564V90.37h-3.89V59.15h4.72c2.77,0,5.75,0,8.23,1.45a8.63,8.63,0,0,1,4.1,7.45,8.5,8.5,0,0,1-7.49,8.74ZM564,73.93h1.24c4,0,8.28-.74,8.28-5.71s-4.64-5.59-8.49-5.59h-1Z"/><path d="M595.9,65.07a5.36,5.36,0,0,0-5-2.94c-2.48,0-5.21,1.7-5.21,4.43,0,2.45,2.4,3.73,4.34,4.48l2.24.87c4.43,1.73,7.74,4.18,7.74,9.39a9.84,9.84,0,0,1-19.62,1l3.93-.82a5.9,5.9,0,1,0,11.8-.17c0-3.35-2.69-4.8-5.38-5.92l-2.16-.91c-3.56-1.53-6.79-3.56-6.79-7.91,0-5.05,4.48-8.07,9.19-8.07a8.92,8.92,0,0,1,8,4.72Z"/><polygon points="18.27 243.41 43.88 243.41 47.08 227.12 52.25 227.12 52.25 249.06 0 249.06 0 245.01 8.85 243.03 8.85 187.3 0 185.32 0 181.27 28.06 181.27 28.06 185.32 18.27 187.3 18.27 243.41"/><path d="M88.69,217a15,15,0,0,0,4.94-.8A9.23,9.23,0,0,0,97.26,214a16.59,16.59,0,0,0,3.2-5.17,18.09,18.09,0,0,0,1.32-6.88,16.41,16.41,0,0,0-1.28-6.54,20.87,20.87,0,0,0-3.24-5.32,11.3,11.3,0,0,0-3.91-2.49,13.73,13.73,0,0,0-5-.9H77V217ZM77,222.41V243L86,245v4.05H59.69V245l7.91-2V187.3l-7.91-2v-4H90.85a26.14,26.14,0,0,1,8.06,1.18,17,17,0,0,1,6.07,3.34,22.68,22.68,0,0,1,5.22,7.06,19.78,19.78,0,0,1,1.93,8.57,21.24,21.24,0,0,1-2,9.08,21.72,21.72,0,0,1-5.31,7.3,17.5,17.5,0,0,1-6.12,3.39,24.74,24.74,0,0,1-7.91,1.22Z"/><polygon points="133.5 243.41 159.11 243.41 162.32 227.12 167.49 227.12 167.49 249.06 115.24 249.06 115.24 245.01 124.09 243.03 124.09 187.3 115.24 185.32 115.24 181.27 143.3 181.27 143.3 185.32 133.5 187.3 133.5 243.41"/><polygon points="231.61 227.69 230.01 218.09 214.28 218.09 214.28 242.75 225.3 244.54 225.3 249.06 196.02 249.06 196.02 245.01 204.87 242.75 204.87 187.29 196.02 185.32 196.02 181.27 249.03 181.27 249.03 201.41 243.94 201.41 240.93 186.73 214.28 186.73 214.28 212.44 230.01 212.44 231.61 202.83 236.41 202.83 236.41 227.69 231.61 227.69"/><path d="M259.28,183.06a5.94,5.94,0,0,1,1.56-4.33,5.66,5.66,0,0,1,4.28-1.6,5.53,5.53,0,0,1,5.94,5.93,5.71,5.71,0,0,1-1.61,4.29,6,6,0,0,1-4.33,1.54,5.37,5.37,0,0,1-5.84-5.83m-5.93,19v-3.86h16.38v45.19L277,245.2v3.86H253.35V245.2l7.25-1.79V203.87Z"/><path d="M290,203.87l-7.25-1.79v-3.86h13.56l2.07,9.42h.37a21,21,0,0,1,7.58-7.59,20.08,20.08,0,0,1,10.31-2.77,16.74,16.74,0,0,1,6.78,1.32,11.51,11.51,0,0,1,4.8,3.76,17.74,17.74,0,0,1,2.68,7.39,80.35,80.35,0,0,1,.8,12.85v20.81l7.26,1.78v3.87H316.25v-3.87l6.3-1.78v-21q0-6-.33-9.09a14.52,14.52,0,0,0-1.17-4.76c-1.58-3.07-4.33-4.61-8.29-4.61a14.17,14.17,0,0,0-5.08.94,14.89,14.89,0,0,0-4.33,2.54,11.65,11.65,0,0,0-3.06,4.38,20.25,20.25,0,0,0-1.18,6.45v25.14l6.31,1.78v3.87H282.73v-3.87l7.25-1.78Z"/><path d="M359.83,244.54a12.68,12.68,0,0,0,5.51-1.37,13.69,13.69,0,0,0,4.85-3.81c1.95-2.38,2.91-5.9,2.91-10.54,0-1.07,0-2.12-.08-3.15s-.17-2-.29-3a88.09,88.09,0,0,0-9.56,2.35,24.36,24.36,0,0,0-6.11,2.78,8.84,8.84,0,0,0-3.26,3.57,11.12,11.12,0,0,0-.93,4.67,9.57,9.57,0,0,0,1.83,6.26,6.33,6.33,0,0,0,5.13,2.21M343.17,238a12.63,12.63,0,0,1,1.65-6.49,15,15,0,0,1,5.22-5,37,37,0,0,1,9.23-3.81,114.6,114.6,0,0,1,13.56-2.83,85.12,85.12,0,0,0-1.09-8.66,17,17,0,0,0-1.65-5,8.33,8.33,0,0,0-3.67-3.62,11.1,11.1,0,0,0-5.08-1.18,11.51,11.51,0,0,0-4.75.94,5.5,5.5,0,0,0-2.88,2.54,6.22,6.22,0,0,1,1.93,2.5,7.12,7.12,0,0,1,.62,2.77,4.67,4.67,0,0,1-1.56,3.72,5.57,5.57,0,0,1-3.81,1.37,5,5,0,0,1-3.72-1.5,5.87,5.87,0,0,1-1.46-4.24,9,9,0,0,1,1.6-5.23,13.53,13.53,0,0,1,4.19-3.86,20.83,20.83,0,0,1,5.84-2.35,27,27,0,0,1,6.44-.8q8,0,12.62,4.61,5.84,5.84,5.84,20.71v13.65a23,23,0,0,0,.61,6.46,2.56,2.56,0,0,0,2.69,1.74h4.23v2.82Q383,250,379.23,250a5.3,5.3,0,0,1-2.36-.47,3.3,3.3,0,0,1-1.5-1.65,10.38,10.38,0,0,1-.81-3.15,45.35,45.35,0,0,1-.23-5H374a21.26,21.26,0,0,1-7.72,7.53A20.65,20.65,0,0,1,355.88,250q-5.94,0-9.32-3.15T343.17,238"/><path d="M400.79,203.87l-7.25-1.79v-3.86H407.1l2.07,9.42h.37a21,21,0,0,1,7.58-7.59,20.1,20.1,0,0,1,10.31-2.77,16.74,16.74,0,0,1,6.78,1.32,11.51,11.51,0,0,1,4.8,3.76,17.74,17.74,0,0,1,2.68,7.39,80.35,80.35,0,0,1,.8,12.85v20.81l7.26,1.78v3.87H427.06v-3.87l6.3-1.78v-21q0-6-.33-9.09a14.52,14.52,0,0,0-1.17-4.76c-1.58-3.07-4.33-4.61-8.29-4.61a14.17,14.17,0,0,0-5.08.94,14.89,14.89,0,0,0-4.33,2.54,11.65,11.65,0,0,0-3.06,4.38,20.25,20.25,0,0,0-1.18,6.45v25.14l6.31,1.78v3.87H393.54v-3.87l7.25-1.78Z"/><path d="M476.48,197.28q8.19,0,13,4A13.13,13.13,0,0,1,494.37,212c0,4.83-1.95,7.26-5.83,7.26a5.77,5.77,0,0,1-4.25-1.51,5.49,5.49,0,0,1-1.5-4.05,6.54,6.54,0,0,1,1.27-4,6.44,6.44,0,0,1,3.44-2.35q-2.75-5.19-10.45-5.18t-11.25,5q-3.54,5-3.54,15.72,0,8.94,2.45,13.65,3.77,7.25,12.34,7.26a19,19,0,0,0,8.28-1.89,19.25,19.25,0,0,0,6.78-5.37l2.82,2.26a24.94,24.94,0,0,1-8.65,8.57,25.65,25.65,0,0,1-22.93,0,18.65,18.65,0,0,1-7.58-7.87,27.53,27.53,0,0,1-2.49-6.91,37.15,37.15,0,0,1-.9-8.34,34,34,0,0,1,1.7-11.06,24.31,24.31,0,0,1,4.84-8.47,21.4,21.4,0,0,1,7.63-5.46,24.74,24.74,0,0,1,9.93-1.93"/><path d="M505,183.06a5.94,5.94,0,0,1,1.55-4.33,5.69,5.69,0,0,1,4.29-1.6,5.53,5.53,0,0,1,5.93,5.93,5.67,5.67,0,0,1-1.61,4.29,6,6,0,0,1-4.32,1.54,5.36,5.36,0,0,1-5.84-5.83m-5.93,19v-3.86h16.37v45.19l7.26,1.79v3.86H499.08V245.2l7.24-1.79V203.87Z"/><path d="M543.42,244.54a12.68,12.68,0,0,0,5.51-1.37,13.77,13.77,0,0,0,4.85-3.81q2.91-3.57,2.92-10.54c0-1.07,0-2.12-.1-3.15s-.16-2-.28-3a88.09,88.09,0,0,0-9.56,2.35,24.45,24.45,0,0,0-6.12,2.78,8.78,8.78,0,0,0-3.24,3.57,11,11,0,0,0-.95,4.67,9.57,9.57,0,0,0,1.84,6.26,6.3,6.3,0,0,0,5.13,2.21M526.76,238a12.62,12.62,0,0,1,1.64-6.49,15,15,0,0,1,5.23-5,36.9,36.9,0,0,1,9.22-3.81,115.24,115.24,0,0,1,13.57-2.83,85.12,85.12,0,0,0-1.09-8.66,17.63,17.63,0,0,0-1.65-5A8.38,8.38,0,0,0,550,202.6a11.16,11.16,0,0,0-5.08-1.18,11.59,11.59,0,0,0-4.76.94,5.44,5.44,0,0,0-2.87,2.54,6.22,6.22,0,0,1,1.93,2.5,7.28,7.28,0,0,1,.61,2.77,4.67,4.67,0,0,1-1.55,3.72,5.59,5.59,0,0,1-3.81,1.37,5,5,0,0,1-3.72-1.5,5.83,5.83,0,0,1-1.46-4.24,9,9,0,0,1,1.59-5.23,13.57,13.57,0,0,1,4.2-3.86,20.76,20.76,0,0,1,5.83-2.35,27.12,27.12,0,0,1,6.45-.8c5.33,0,9.55,1.53,12.62,4.61q5.84,5.84,5.83,20.71v13.65a22.5,22.5,0,0,0,.62,6.46,2.55,2.55,0,0,0,2.68,1.74h4.24v2.82Q566.58,250,562.81,250a5.29,5.29,0,0,1-2.35-.47,3.3,3.3,0,0,1-1.5-1.65,10.09,10.09,0,0,1-.81-3.15,45.35,45.35,0,0,1-.23-5h-.37a21.29,21.29,0,0,1-7.73,7.53A20.6,20.6,0,0,1,539.46,250q-5.93,0-9.32-3.15T526.76,238"/><polygon points="583.62 181.27 576.38 179.48 576.38 175.62 592.75 175.62 592.75 243.41 600 245.2 600 249.06 576.38 249.06 576.38 245.2 583.62 243.41 583.62 181.27"/><path d="M249.2,42.06c-2.69,0-4.49,2-4.49,5a5.82,5.82,0,0,0,2.16,4.15c.74.76,1.19,1.25,1.19,1.76,0,1.1-1.37,1.7-2.07,1.7-1.39,0-3.39-2.09-5.51-4.29-3.48-3.62-7.81-8.13-13.57-8.13-7.74,0-18.52,9.21-18.52,18.27a7.62,7.62,0,0,0,7.44,7.77c3.29,0,6.63-1.9,6.63-5.53s-2.5-4.38-4.15-4.92-2.26-.84-2.26-2.13a5,5,0,0,1,4.79-4.52c2.27,0,4.81,1.54,7.35,4.46C228,72.28,216.82,83,199.59,83c-5.2,0-15.93-2.38-15.93-9.72,0-5.75,11.42-15.84,20.6-23.95L207,46.91c12.13-10.85,17.31-17.35,17.31-21.74,0-3.73-2.3-6-6.16-6a5.89,5.89,0,0,0-5.8,5.38,11.87,11.87,0,0,0,.44,3,6.52,6.52,0,0,1,.26,1.47c0,3.84-4,7.8-7.53,11.29l-1.42,1.42c-1.67-2-4.3-3.06-7.68-3.06-6.35,0-13,3.82-18.17,10.48-4.71,6-7.63,13.73-7.63,20.07,0,12.19,7.26,26.42,27.75,26.42,19.52,0,32.42-13.19,34.85-35.43,1.95,1.75,4.06,3.39,7.36,3.39,5.76,0,14.59-7.76,14.59-14.46C255.14,44.93,252.75,42.06,249.2,42.06Zm-58.17,5c2.43,0,3.81.61,3.93,3.69l-2,1.9c-4.59,4.36-9.32,8.85-13.12,14.14a28.53,28.53,0,0,1-.22-3.72C179.63,56.38,184,47.05,191,47.05Z"/><path d="M73.57,66.32c-3.5,14-9.18,27-26.87,27C20.16,93.3,18.1,64,18.1,55c0-9.44,2-40.25,28.35-40.25,13.61,0,23.42,8.79,25.58,23l.15,1h5.07l-1.1-27.21H72.34l-1.83,5.37C62.88,12.16,56.1,9.51,45.44,9.51,19.11,9.51,0,28.62,0,55,0,81,17.8,98.49,44.3,98.49c10.82,0,19.38-2.74,27.54-8.87l2.75,5.83h3.5v-30h-4.3Z"/><path d="M151.51,55.91C147.36,53,142.24,51.74,137,51c7.57-2.92,15.48-8.14,15.48-19a17.94,17.94,0,0,0-5.33-13.41c-7.28-7.07-20-7.8-27-7.6-2.59.06-5.14.16-7.69.26s-4.9.18-7.32.25c-3-.07-5.92-.16-8.87-.25s-6.13-.2-9.23-.26l-1.16,0v5.21h1.47c4.68,0,8.31.25,9.34,3.52s1.08,12.86,1.08,16.48V71.91c0,3.62,0,13.23-1.08,16.5s-4.64,3.46-9.34,3.5H85.94v5.21l1.15,0c3.55-.07,7.13-.16,10.71-.26s7.14-.19,10.64-.25c2.78.06,5.53.16,8.28.25s5.51.19,8.33.26h1.37c7,0,15.78,0,22.45-3.43,8.31-4.45,12.88-11.32,12.88-19.36C161.75,66.94,158.11,60.4,151.51,55.91Zm-38.36-1.09h4.71c5.76,0,12.29-.07,17.28,2.54,5.65,3,8.51,8.36,8.51,15.83,0,12.09-5.66,18.22-16.83,18.22h-.33c-4.69,0-10.08,0-11.91-4.6-1.43-3.59-1.43-11.35-1.43-15.52Zm17.39-8.19c-4.3,2.53-8.25,2.52-13.25,2.5h-4.14V21.43c0-3.08.24-3.91.36-4.09.71-.47,4.5-.4,5.74-.38l1,0c10.76,0,16.21,5.28,16.21,15.69C136.44,39.8,134.67,44,130.54,46.63Z"/><path d="M326.73,11H246.8v22H252l0-1.1c.47-14,5.54-14.59,18-14.59h1.29c3.1,0,6.61,0,7.79,1.13a1.5,1.5,0,0,1,.42,1.15v60c0,8.52-1.12,11.79-13,12.28l-1.09,0v5.16l1.16,0c3.46-.07,6.86-.16,10.25-.26s6.56-.19,9.83-.25c3.48.06,7,.16,10.5.25s7,.19,10.51.26l1.16,0V92l-1.09,0c-11.84-.49-13-3.76-13-12.28v-60a1.33,1.33,0,0,1,.41-1c1.4-1.38,5.8-1.32,9-1.27l1.73,0c11.83,0,15.65,3.42,16.33,14.62l.07,1.07H328Z"/><rect x="299" y="-159" width="2" height="600" transform="translate(159 441) rotate(-90)"/></svg>