<?xml version="1.0" encoding="UTF-8"?><svg id="Layer_1" xmlns="http://www.w3.org/2000/svg" viewBox="0 0 410.99 56.4"><g><path d="M171.88,24.48h-.07l-3.09,17.49h-3.41l5.41-27.6,9.09,20.86,9.09-20.86,5.41,27.6h-3.41l-3.09-17.49h-.07l-7.94,18.05-7.94-18.05Z"/><path d="M202.31,35.33l-3.02,6.64h-3.55l12.64-27.6,12.64,27.6h-3.55l-3.02-6.64h-12.15Zm6.07-13.73l-4.71,10.71h9.41l-4.71-10.71Z"/><path d="M223.31,14.22l19.87,20.82V15.49h3.3v27.57l-19.87-20.82v19.73h-3.3V14.22Z"/><path d="M255.36,35.33l-3.02,6.64h-3.55l12.64-27.6,12.64,27.6h-3.55l-3.02-6.64h-12.15Zm6.07-13.73l-4.71,10.71h9.41l-4.71-10.71Z"/><path d="M299.35,28.62v1.06c0,7.27-5.13,12.85-12.54,12.85s-13.38-6.39-13.38-13.73,6.11-13.87,13.73-13.87c4.11,0,8.18,1.86,10.78,5.13l-2.32,2.21c-1.9-2.6-5.09-4.32-8.32-4.32-5.93,0-10.57,4.81-10.57,10.74,0,5.55,4.56,10.82,10.29,10.82,4.11,0,8.53-3.55,8.67-7.87h-6.85v-3.02h10.5Z"/><path d="M302.84,15.49h14.22v3.02h-10.92v7.41h10.61v3.02h-10.61v10.01h10.92v3.02h-14.22V15.49Z"/><path d="M325.94,24.48h-.07l-3.09,17.49h-3.41l5.41-27.6,9.09,20.86,9.09-20.86,5.41,27.6h-3.41l-3.09-17.49h-.07l-7.94,18.05-7.94-18.05Z"/><path d="M351.55,15.49h14.22v3.02h-10.92v7.41h10.61v3.02h-10.61v10.01h10.92v3.02h-14.22V15.49Z"/><path d="M369.48,14.22l19.87,20.82V15.49h3.3v27.57l-19.87-20.82v19.73h-3.3V14.22Z"/><path d="M404.7,41.96h-3.3V18.51h-6.29v-3.02h15.87v3.02h-6.29v23.46Z"/></g><g><path d="M10.83,34.61l7.37-19.25,7.37,19.25,7.3-18.69h3.53l-10.83,27.14-7.37-19.14-7.37,19.14L0,15.92H3.53l7.3,18.69Z"/><path d="M40.55,15.92h14.02v2.98h-10.77v7.3h10.45v2.98h-10.45v9.86h10.77v2.98h-14.02V15.92Z"/><path d="M64.38,35.47l-2.98,6.54h-3.49l12.46-27.21,12.46,27.21h-3.49l-2.98-6.54h-11.98Zm5.99-13.53l-4.64,10.56h9.28l-4.64-10.56Z"/><path d="M90.35,39.04h7.93v2.98h-11.18V15.92h3.25v23.12Z"/><path d="M108.5,42.02h-3.25V18.89h-6.2v-2.98h15.65v2.98h-6.2v23.12Z"/><path d="M134.75,26.44V15.92h3.25v26.1h-3.25v-12.53h-12.43v12.53h-3.25V15.92h3.25v10.52h12.43Z"/></g></svg>